<svg width="27" height="150" viewBox="0 0 27 150" fill="none" xmlns="http://www.w3.org/2000/svg">
<path d="M12.4102 3.82086L4.98634 3.86618C3.13037 3.87751 2.17078 3.94737 0.987977 4.14659L0.966491 0.626655C2.05564 0.81201 3.11201 0.869563 4.93598 0.85843L21.9597 0.754517C23.4316 0.745532 24.4552 0.675282 25.734 0.475473C25.6767 1.56384 25.6507 2.55602 25.6603 4.12399L25.713 12.7638C25.7232 14.4278 25.7932 15.4194 25.9607 16.6344L22.7927 16.6537C22.9461 15.5648 23.004 14.5724 22.9933 12.8124L22.938 3.7566L15.0982 3.80446L15.1429 11.1323C15.1532 12.8283 15.2231 13.7879 15.3903 14.9709L12.2544 14.99C12.4077 13.9011 12.4657 12.9087 12.4549 11.1487L12.4102 3.82086ZM0.68653 28.1571C0.653324 22.7172 4.21636 19.2714 9.88025 19.2368C15.5121 19.2025 19.149 22.6043 19.1818 27.9802C19.2146 33.3561 15.6516 36.8019 10.0197 36.8363C4.38779 36.8707 0.718758 33.437 0.68653 28.1571ZM16.7822 28.0589C16.76 24.4109 14.1541 22.1548 9.93022 22.1806C5.7063 22.2064 3.09602 24.4624 3.11809 28.0783C3.14036 31.7262 5.71379 33.9186 9.93771 33.8928C14.1936 33.8668 16.8041 31.6428 16.7822 28.0589ZM25.8814 40.3458L25.9021 43.7378C24.7171 43.585 23.7888 43.5267 22.1248 43.5368L5.00512 43.6413C3.46915 43.6507 2.54156 43.7203 1.23056 43.8884L1.20986 40.4964C2.45881 40.6488 3.35518 40.7073 4.98715 40.6974L22.1068 40.5929C23.8028 40.5825 24.7304 40.5128 25.8814 40.3458ZM25.9289 48.1269L25.9496 51.5189C24.7646 51.3661 23.8363 51.3078 22.1723 51.3179L5.05262 51.4224C3.51665 51.4318 2.58906 51.5015 1.27806 51.6695L1.25735 48.2775C2.50631 48.4299 3.40268 48.4884 5.03465 48.4785L22.1543 48.374C23.8503 48.3636 24.7779 48.294 25.9289 48.1269ZM0.90608 64.1252C0.872875 58.6853 4.43591 55.2395 10.0998 55.2049C15.7317 55.1705 19.3685 58.5724 19.4013 63.9483C19.4342 69.3242 15.8711 72.77 10.2392 72.8044C4.60734 72.8388 0.938309 69.4051 0.90608 64.1252ZM17.0018 64.027C16.9795 60.379 14.3737 58.1229 10.1498 58.1487C5.92585 58.1745 3.31557 60.4304 3.33764 64.0464C3.35991 67.6943 5.93334 69.8866 10.1573 69.8608C14.4132 69.8349 17.0237 67.6109 17.0018 64.027ZM19.0947 87.1089L19.1101 89.6368C18.5345 89.7043 17.4483 89.999 16.5223 90.3246L8.95367 92.8669C8.02764 93.1925 6.97322 93.455 5.0876 93.8505C7.26629 94.2852 8.13145 94.4719 9.76615 94.91L15.5684 96.5706C16.9789 96.978 18.1963 97.1945 19.1566 97.2527L19.1775 100.677C18.3436 100.362 17.638 100.11 15.3298 99.4201L4.1407 96.0003C2.76219 95.5927 2.24922 95.4358 1.54445 95.3121L1.52844 92.6882C2.19964 92.5561 3.12606 92.2944 4.11609 91.9684L12.93 88.9705C13.1856 88.905 13.6328 88.7742 14.9744 88.382C14.1091 88.1633 13.1473 87.8812 12.8587 87.7869L4.07312 84.9285C3.11119 84.6144 2.11745 84.3324 1.47668 84.2084L1.46046 81.5524C2.22747 81.3877 2.57888 81.2896 4.08012 80.8324L15.1948 77.3085C16.4723 76.8847 17.9731 76.3635 19.0267 75.9731L19.0476 79.397C18.0562 79.4991 16.8416 79.7305 15.4682 80.1549L9.36725 81.9841C8.18522 82.3114 6.6194 82.6729 5.05319 82.9705C6.6875 83.3445 8.35421 83.7824 9.25195 84.0649L16.4987 86.4527C17.4286 86.767 18.4861 87.0166 19.0947 87.1089ZM19.3437 127.899L19.3642 131.259C18.0831 131.075 17.2187 131.016 15.5867 131.026L5.5389 131.088C3.97093 131.097 3.04334 131.167 1.76453 131.367L1.74539 128.231L3.63336 128.219C4.04935 128.217 4.20935 128.216 5.00972 128.275C2.568 126.69 1.43552 124.649 1.41833 121.833C1.40407 119.497 2.22492 117.668 3.75445 116.602C4.71053 115.956 5.95655 115.629 7.65252 115.618L15.5244 115.57C17.1883 115.56 18.1799 115.49 19.2669 115.324L19.2874 118.684C17.9425 118.532 17.0141 118.473 15.5101 118.483L8.11828 118.528C5.30234 118.545 3.86998 119.802 3.88483 122.234C3.89498 123.898 4.60737 125.269 6.18335 126.572C7.2126 127.429 7.98313 127.841 9.29725 128.185L15.5691 128.146C16.9771 128.138 18.0647 128.067 19.3437 127.899ZM6.64989 134.85L7.14902 137.983C5.96641 138.214 5.45598 138.474 4.8837 139.085C4.1846 139.889 3.80783 141.076 3.81741 142.644C3.83342 145.268 4.96375 146.957 6.72372 146.946C7.55571 146.941 8.22574 146.617 8.60583 145.974C9.04952 145.268 9.17439 144.755 9.70354 142.32C10.2003 139.821 10.5456 138.731 11.2428 137.606C12.0668 136.289 13.3425 135.577 14.8784 135.568C16.0944 135.561 17.2495 136.066 18.087 136.956C19.2784 138.165 19.8653 139.954 19.8792 142.226C19.893 144.498 19.3282 146.325 18.2794 147.515C17.5487 148.384 16.7833 148.805 15.314 149.262L14.8477 146.256C15.6465 146.06 16.0295 145.897 16.4749 145.478C17.2386 144.77 17.648 143.679 17.6394 142.271C17.6257 140.031 16.5282 138.47 14.9282 138.48C14.2242 138.484 13.5866 138.872 13.2387 139.546C12.8592 140.284 12.6079 141.054 12.2036 142.976C11.5816 145.924 11.1728 147.111 10.4747 148.075C9.64954 149.2 8.34166 149.88 6.93369 149.889C3.57375 149.909 1.5086 147.106 1.48047 142.498C1.46211 139.49 2.34423 137.213 4.03258 135.954C4.73344 135.438 5.30787 135.178 6.64989 134.85Z" fill="white"/>
</svg>
