<svg width="219" height="33" viewBox="0 0 219 33" fill="none" xmlns="http://www.w3.org/2000/svg">
<path d="M0.390625 25.3984L4.92188 23.875C5.65104 25.1771 6.70573 26.2448 8.08594 27.0781C9.46615 27.8854 10.9896 28.2891 12.6562 28.2891C14.375 28.2891 15.7552 27.8724 16.7969 27.0391C17.8385 26.2057 18.3594 25.125 18.3594 23.7969C18.3594 22.3906 17.7995 21.2969 16.6797 20.5156C15.5859 19.7344 13.9714 18.9792 11.8359 18.25C8.78906 17.2344 6.73177 16.4271 5.66406 15.8281C2.8776 14.2396 1.48438 11.9349 1.48438 8.91406C1.48438 6.36198 2.48698 4.30469 4.49219 2.74219C6.4974 1.17969 9.11458 0.398438 12.3438 0.398438C15 0.398438 17.2656 1.02344 19.1406 2.27344C21.0417 3.4974 22.4219 5.07292 23.2812 7L18.9453 8.44531C17.2786 6.02344 15.0651 4.8125 12.3047 4.8125C10.612 4.8125 9.27083 5.1901 8.28125 5.94531C7.29167 6.70052 6.79688 7.6901 6.79688 8.91406C6.79688 9.27865 6.83594 9.63021 6.91406 9.96875C6.99219 10.2812 7.14844 10.5807 7.38281 10.8672C7.61719 11.1536 7.82552 11.401 8.00781 11.6094C8.1901 11.8177 8.48958 12.0391 8.90625 12.2734C9.32292 12.5078 9.64844 12.6901 9.88281 12.8203C10.1432 12.9505 10.5599 13.1198 11.1328 13.3281C11.7057 13.5365 12.1094 13.6797 12.3438 13.7578C12.6042 13.8359 13.0729 13.9922 13.75 14.2266C14.4271 14.4349 14.8828 14.5781 15.1172 14.6562C16.3151 15.0469 17.3698 15.4635 18.2812 15.9062C19.1927 16.349 20.0781 16.9219 20.9375 17.625C21.8229 18.3021 22.5 19.1484 22.9688 20.1641C23.4375 21.1797 23.6719 22.3255 23.6719 23.6016C23.6719 26.4922 22.6302 28.7318 20.5469 30.3203C18.4896 31.9089 15.8203 32.7031 12.5391 32.7031C9.70052 32.7031 7.21354 32.0521 5.07812 30.75C2.94271 29.4219 1.38021 27.638 0.390625 25.3984ZM26.2891 20.75C26.2891 17.1302 27.2526 14.2266 29.1797 12.0391C31.1328 9.85156 33.6458 8.75781 36.7188 8.75781C38.9583 8.75781 40.8464 9.4349 42.3828 10.7891C43.9193 12.1432 44.8828 13.6927 45.2734 15.4375L41.0547 16.6094C40.7422 15.6198 40.2083 14.7734 39.4531 14.0703C38.6979 13.3411 37.7995 12.9766 36.7578 12.9766C35.0651 12.9766 33.737 13.7188 32.7734 15.2031C31.8359 16.6875 31.3672 18.5365 31.3672 20.75C31.3672 23.1979 31.875 25.099 32.8906 26.4531C33.9062 27.8073 35.1953 28.4844 36.7578 28.4844C37.9036 28.4844 38.9062 28.0938 39.7656 27.3125C40.651 26.5052 41.263 25.5938 41.6016 24.5781L45.8203 25.7891C45.3255 27.612 44.2448 29.2266 42.5781 30.6328C40.9115 32.013 38.9583 32.7031 36.7188 32.7031C33.6458 32.7031 31.1328 31.6224 29.1797 29.4609C27.2526 27.2734 26.2891 24.3698 26.2891 20.75ZM49.2578 32V9.46094H54.0234V11.8828C54.5182 11.0495 55.2214 10.3203 56.1328 9.69531C57.0703 9.07031 58.1771 8.75781 59.4531 8.75781C60.651 8.75781 61.6276 8.92708 62.3828 9.26562V13.7578C61.3932 13.4453 60.4167 13.2891 59.4531 13.2891C57.7604 13.2891 56.4583 13.9531 55.5469 15.2812C54.6615 16.5833 54.2188 18.3281 54.2188 20.5156V32H49.2578ZM68.75 20.75C68.75 23.3542 69.2839 25.2943 70.3516 26.5703C71.4193 27.8464 72.6693 28.4844 74.1016 28.4844C75.5078 28.4844 76.7448 27.8464 77.8125 26.5703C78.8802 25.2943 79.4141 23.3542 79.4141 20.75C79.4141 18.0938 78.8802 16.1406 77.8125 14.8906C76.7448 13.6146 75.5078 12.9766 74.1016 12.9766C72.6953 12.9766 71.4453 13.6146 70.3516 14.8906C69.2839 16.1406 68.75 18.0938 68.75 20.75ZM63.6719 20.75C63.6719 17.3906 64.5573 14.5521 66.3281 12.2344C68.099 9.91667 70.6901 8.75781 74.1016 8.75781C77.487 8.75781 80.0651 9.91667 81.8359 12.2344C83.6068 14.5521 84.4922 17.3906 84.4922 20.75C84.4922 21.7917 84.388 22.8333 84.1797 23.875C83.9974 24.9167 83.6589 25.9844 83.1641 27.0781C82.6693 28.1458 82.0443 29.0964 81.2891 29.9297C80.5339 30.737 79.5312 31.401 78.2812 31.9219C77.0573 32.4427 75.6641 32.7031 74.1016 32.7031C72.5651 32.7031 71.1719 32.4557 69.9219 31.9609C68.6979 31.4401 67.6953 30.7891 66.9141 30.0078C66.1589 29.2005 65.5208 28.263 65 27.1953C64.5052 26.1016 64.1536 25.0339 63.9453 23.9922C63.763 22.9245 63.6719 21.8438 63.6719 20.75ZM88.9844 32V0.0859375H93.9062V32H88.9844ZM100.117 32V0.0859375H105.039V32H100.117ZM119.297 20.7109C119.297 17.013 120.195 14.0964 121.992 11.9609C123.815 9.82552 126.12 8.75781 128.906 8.75781C130.234 8.75781 131.38 9.08333 132.344 9.73438C133.333 10.3594 134.089 11.1016 134.609 11.9609V0.0859375H139.531V32H134.766V29.0703C134.297 30.0599 133.516 30.9193 132.422 31.6484C131.354 32.3516 130.169 32.7031 128.867 32.7031C127.695 32.7031 126.562 32.4818 125.469 32.0391C124.375 31.5964 123.346 30.9193 122.383 30.0078C121.445 29.0964 120.69 27.8464 120.117 26.2578C119.57 24.6432 119.297 22.7943 119.297 20.7109ZM124.375 20.7109C124.375 23.1589 124.844 25.0729 125.781 26.4531C126.745 27.8073 128.008 28.4844 129.57 28.4844C131.081 28.4844 132.305 27.7943 133.242 26.4141C134.206 25.0078 134.688 23.1068 134.688 20.7109C134.688 18.3932 134.219 16.5312 133.281 15.125C132.37 13.6927 131.133 12.9766 129.57 12.9766C127.93 12.9766 126.654 13.6797 125.742 15.0859C124.831 16.4922 124.375 18.3672 124.375 20.7109ZM148.945 20.75C148.945 23.3542 149.479 25.2943 150.547 26.5703C151.615 27.8464 152.865 28.4844 154.297 28.4844C155.703 28.4844 156.94 27.8464 158.008 26.5703C159.076 25.2943 159.609 23.3542 159.609 20.75C159.609 18.0938 159.076 16.1406 158.008 14.8906C156.94 13.6146 155.703 12.9766 154.297 12.9766C152.891 12.9766 151.641 13.6146 150.547 14.8906C149.479 16.1406 148.945 18.0938 148.945 20.75ZM143.867 20.75C143.867 17.3906 144.753 14.5521 146.523 12.2344C148.294 9.91667 150.885 8.75781 154.297 8.75781C157.682 8.75781 160.26 9.91667 162.031 12.2344C163.802 14.5521 164.688 17.3906 164.688 20.75C164.688 21.7917 164.583 22.8333 164.375 23.875C164.193 24.9167 163.854 25.9844 163.359 27.0781C162.865 28.1458 162.24 29.0964 161.484 29.9297C160.729 30.737 159.727 31.401 158.477 31.9219C157.253 32.4427 155.859 32.7031 154.297 32.7031C152.76 32.7031 151.367 32.4557 150.117 31.9609C148.893 31.4401 147.891 30.7891 147.109 30.0078C146.354 29.2005 145.716 28.263 145.195 27.1953C144.701 26.1016 144.349 25.0339 144.141 23.9922C143.958 22.9245 143.867 21.8438 143.867 20.75ZM166.406 9.46094H171.719L174.062 20.7891C174.219 21.6745 174.609 23.8099 175.234 27.1953H175.391C175.521 26.4661 175.729 25.3464 176.016 23.8359C176.328 22.3255 176.536 21.3099 176.641 20.7891L179.023 9.46094H184.219L186.641 20.8672C186.745 21.4661 186.94 22.4818 187.227 23.9141C187.539 25.3464 187.76 26.4401 187.891 27.1953H188.047C188.177 26.4661 188.385 25.2943 188.672 23.6797C188.984 22.0651 189.167 21.1016 189.219 20.7891L191.523 9.46094H196.836L190.742 32H185.234L182.852 21.0234C182.513 19.3568 182.135 17.2865 181.719 14.8125H181.562C181.432 15.6198 181.224 16.7656 180.938 18.25C180.651 19.7344 180.469 20.6589 180.391 21.0234L178.008 32H172.5L166.406 9.46094ZM199.844 32V9.46094H204.648V12.3125H204.688C205.078 11.4792 205.794 10.6849 206.836 9.92969C207.904 9.14844 209.271 8.75781 210.938 8.75781C213.177 8.75781 214.961 9.44792 216.289 10.8281C217.617 12.2083 218.281 14.4349 218.281 17.5078V32H213.32V18.1719C213.32 14.7083 212.148 12.9766 209.805 12.9766C208.372 12.9766 207.174 13.5495 206.211 14.6953C205.273 15.8411 204.805 17.2604 204.805 18.9531V32H199.844Z" fill="white"/>
</svg>
